<svg width="512" height="512" viewBox="0 0 512 512" fill="none" xmlns="http://www.w3.org/2000/svg">
<!--    <rect width="512" height="512" fill="#1F1E24"/>-->
    <path d="M194.295 418.453C211.984 432.786 234.949 440.741 257.819 438.157C257.9 438.148 257.941 438.103 257.941 438.022V438.015C257.936 437.929 257.891 437.887 257.806 437.887C241.598 437.42 226.933 431.467 214.121 421.463C181.341 395.887 170.133 353.163 185.975 314.721C197.393 287.014 219.134 263.988 238.209 240.962C250.5 226.121 261.594 209.853 267.445 191.298C280.365 150.32 265.733 107.42 241.26 74.0179C241.251 74.009 241.239 74.0029 241.227 74.0008C241.214 73.9987 241.201 74.0007 241.191 74.0064C241.18 74.0121 241.172 74.0212 241.169 74.032C241.165 74.0428 241.167 74.0546 241.172 74.0652C258.834 112.324 254.308 155.718 230.741 190.372C201.688 233.109 156.076 267.316 153.161 323.657C151.28 359.893 165.939 395.481 194.295 418.453Z" stroke="#CCCCCC" stroke-width="0.75"/>
    <path d="M296.809 201.831C319.267 226.967 319.47 265.49 296.809 290.62C287.116 301.368 276.712 310.338 266.518 320.024C247.443 338.146 233.609 360.624 234.753 387.925C235.456 404.822 241.621 419.037 253.246 430.568C253.797 431.113 253.871 431.055 253.47 430.392C250.351 425.231 248.978 419.406 248.992 413.217C249.053 390.732 263.319 375.648 282.475 366.211C290.033 362.482 296.658 358.983 302.349 355.713C323.616 343.49 339.181 326.248 344.389 301.686C352.994 261.114 327.999 224.742 296.992 201.628C296.27 201.091 296.209 201.159 296.809 201.831Z" stroke="#CCCCCC" stroke-width="0.75"/>
    <path d="M224.484 279.168C207.519 300.117 195.485 324.516 196.358 352.263C197.048 374.248 205.659 394.202 221.224 409.828C221.278 409.878 221.332 409.878 221.386 409.828C221.445 409.778 221.449 409.724 221.4 409.666C214.667 401.291 210.112 391.846 207.736 381.33C198.57 340.696 224.579 307.334 245.603 275.772C251.163 267.416 256.556 257.301 261.783 245.427C267.334 232.818 270.904 218.667 272.491 202.974C272.496 202.906 272.466 202.866 272.403 202.852H272.396C272.333 202.838 272.293 202.866 272.275 202.933C264.259 232.412 243.316 255.925 224.484 279.168Z" stroke="#CCCCCC" stroke-width="0.75"/>
    <path d="M274.581 438.989C316.04 428.924 346.06 394.547 355.51 353.758C360.462 332.405 360.978 310.827 357.059 289.023C357.055 289.005 357.043 288.996 357.025 288.996C357.016 289.001 357.005 289.003 356.991 289.003C356.96 289.003 356.946 289.019 356.951 289.05C358.053 311.799 352.094 335.352 335.684 351.986C326.2 361.598 316.155 367.76 305.528 374.768C283.693 389.183 272.363 412.412 274.114 438.651C274.118 438.705 274.133 438.758 274.159 438.806C274.186 438.854 274.222 438.895 274.267 438.928C274.311 438.96 274.363 438.982 274.417 438.993C274.471 439.003 274.527 439.002 274.581 438.989Z" stroke="#CCCCCC" stroke-width="0.75"/>
    <path d="M257.819 438.157C234.949 440.741 211.984 432.786 194.295 418.453C165.939 395.481 151.28 359.893 153.161 323.657C156.076 267.316 201.688 233.109 230.741 190.372C254.308 155.718 258.834 112.324 241.172 74.0652C241.167 74.0546 241.165 74.0428 241.169 74.032C241.172 74.0212 241.18 74.0121 241.191 74.0064C241.201 74.0007 241.214 73.9987 241.227 74.0008C241.239 74.0029 241.251 74.009 241.26 74.0179C265.733 107.42 280.365 150.32 267.445 191.298C261.594 209.853 250.5 226.121 238.209 240.962C219.134 263.988 197.393 287.014 185.975 314.721C170.133 353.163 181.341 395.887 214.121 421.463C226.933 431.467 241.598 437.42 257.806 437.887C257.891 437.887 257.936 437.929 257.941 438.015V438.022C257.941 438.103 257.9 438.148 257.819 438.157Z" fill="#F1F0F2"/>
    <path d="M296.809 290.62C319.47 265.49 319.267 226.967 296.809 201.831C296.209 201.159 296.27 201.091 296.992 201.628C327.999 224.742 352.994 261.114 344.389 301.686C339.181 326.248 323.616 343.49 302.349 355.713C296.658 358.983 290.033 362.482 282.475 366.211C263.319 375.648 249.053 390.732 248.992 413.217C248.978 419.406 250.351 425.231 253.47 430.392C253.871 431.055 253.797 431.113 253.246 430.568C241.621 419.037 235.456 404.822 234.753 387.925C233.609 360.624 247.443 338.146 266.518 320.024C276.712 310.338 287.116 301.368 296.809 290.62Z" fill="#F1F0F2"/>
    <path d="M196.358 352.263C195.485 324.516 207.519 300.117 224.484 279.168C243.316 255.925 264.259 232.412 272.275 202.933C272.293 202.866 272.333 202.838 272.396 202.852H272.403C272.466 202.866 272.496 202.906 272.491 202.974C270.904 218.667 267.334 232.818 261.783 245.427C256.556 257.301 251.163 267.416 245.603 275.772C224.579 307.334 198.57 340.696 207.736 381.33C210.112 391.846 214.667 401.291 221.4 409.666C221.449 409.724 221.445 409.778 221.386 409.828C221.332 409.878 221.278 409.878 221.224 409.828C205.659 394.202 197.048 374.248 196.358 352.263Z" fill="#F1F0F2"/>
    <path d="M355.51 353.758C346.06 394.547 316.04 428.924 274.581 438.989C274.527 439.002 274.471 439.003 274.417 438.993C274.363 438.982 274.311 438.96 274.267 438.928C274.222 438.895 274.186 438.854 274.159 438.806C274.133 438.758 274.118 438.705 274.114 438.651C272.363 412.412 283.693 389.183 305.528 374.768C316.155 367.76 326.2 361.598 335.684 351.986C352.094 335.352 358.053 311.799 356.951 289.05C356.946 289.019 356.96 289.003 356.991 289.003C357.005 289.003 357.016 289.001 357.025 288.996C357.043 288.996 357.055 289.005 357.059 289.023C360.978 310.827 360.462 332.405 355.51 353.758Z" fill="#F1F0F2"/>
</svg>
